<?xml version="1.0" standalone="no"?>
<!DOCTYPE svg PUBLIC "-//W3C//DTD SVG 20010904//EN"
 "http://www.w3.org/TR/2001/REC-SVG-20010904/DTD/svg10.dtd">
<svg version="1.0" xmlns="http://www.w3.org/2000/svg"
 width="900.000000pt" height="900.000000pt" viewBox="0 0 900.000000 900.000000"
 preserveAspectRatio="xMidYMid meet">
<metadata>
Created by potrace 1.14, written by Peter Selinger 2001-2017
</metadata>
<g transform="translate(0.000000,900.000000) scale(0.100000,-0.100000)"
fill="#000000" stroke="none">
<path d="M0 8697 l0 -304 308 -235 c169 -129 348 -265 397 -301 l90 -66 48
-148 c26 -81 74 -229 107 -328 32 -99 115 -355 185 -570 69 -214 128 -396 130
-402 7 -20 45 -16 45 5 0 9 -13 58 -29 107 -16 50 -79 243 -139 430 -61 187
-125 385 -143 440 -17 55 -55 174 -84 265 -108 335 -184 576 -195 619 -8 29
-12 175 -12 418 l-1 373 -354 0 -353 0 0 -303z"/>
<path d="M1165 8968 c21 -95 138 -449 175 -530 13 -27 30 -38 30 -19 0 4 -13
39 -28 77 -28 67 -99 284 -142 432 -11 39 -26 72 -31 72 -7 0 -8 -12 -4 -32z"/>
<path d="M1962 8992 c6 -17 233 -209 317 -269 3 -2 -7 -65 -22 -141 -53 -263
-61 -365 -61 -772 0 -378 9 -521 50 -825 18 -138 59 -362 84 -467 l19 -80 -32
-69 c-18 -38 -38 -69 -45 -69 -9 0 -12 -11 -10 -32 2 -18 8 -33 13 -32 6 0 30
39 53 85 58 112 110 178 187 242 76 63 144 99 257 136 45 15 84 33 86 39 9 28
-187 -29 -277 -80 -30 -17 -84 -60 -121 -95 -62 -58 -90 -75 -90 -55 0 4 -7
45 -15 92 -16 87 -22 125 -49 310 -63 432 -82 909 -51 1280 21 253 47 391 139
733 21 75 20 77 -9 77 -14 0 -25 -3 -25 -6 0 -17 -52 -200 -59 -207 -8 -8
-114 69 -217 160 -47 40 -69 53 -93 53 -18 0 -31 -4 -29 -8z"/>
<path d="M2746 8953 c-3 -27 -11 -132 -16 -235 l-10 -188 61 -282 c33 -156 69
-326 80 -378 11 -52 24 -113 29 -135 5 -22 19 -83 31 -135 11 -52 25 -106 29
-120 18 -52 10 15 -15 135 -14 66 -30 143 -35 170 -6 28 -14 70 -19 95 -6 25
-30 142 -55 260 -24 118 -52 251 -61 295 -14 66 -16 111 -11 255 3 96 9 205
12 243 8 78 -11 96 -20 20z"/>
<path d="M3580 8997 c0 -13 148 -408 233 -622 133 -336 328 -789 442 -1027 18
-39 33 -58 46 -58 10 0 20 4 23 8 2 4 18 156 35 337 17 182 35 377 41 435 5
58 14 157 20 220 6 63 15 156 20 205 6 50 17 176 25 280 9 105 18 198 21 208
4 13 -1 17 -24 17 l-30 0 -7 -93 c-9 -122 -16 -133 -48 -71 -85 164 -82 159
-116 162 l-33 3 55 -103 c127 -238 119 -219 113 -305 -4 -43 -11 -123 -16
-178 -20 -202 -90 -965 -90 -977 0 -60 -198 383 -449 1002 -119 293 -122 302
-140 340 -6 14 -28 68 -49 120 -25 61 -44 96 -55 98 -9 2 -17 1 -17 -1z"/>
<path d="M5086 8928 c-26 -108 -79 -288 -151 -508 -150 -459 -257 -925 -334
-1445 -33 -221 -42 -288 -60 -435 -40 -321 -72 -665 -92 -998 -12 -187 -9
-212 23 -199 11 4 17 50 27 188 24 360 61 757 92 999 18 140 49 361 59 428 6
34 14 90 20 125 41 257 118 628 180 872 43 167 62 231 135 455 84 258 165 540
165 575 0 9 -9 15 -24 15 -21 0 -25 -8 -40 -72z"/>
<path d="M5765 8605 c0 -217 3 -395 6 -395 14 0 19 120 19 425 0 301 -3 365
-19 365 -3 0 -6 -178 -6 -395z"/>
<path d="M6565 8983 c59 -148 117 -362 150 -548 100 -576 98 -1276 -5 -1947
-11 -70 -20 -129 -20 -132 0 -3 -4 -6 -9 -6 -6 0 -25 28 -43 63 -20 39 -63 93
-115 144 -68 68 -99 90 -178 129 l-95 46 0 41 c0 22 4 68 9 101 5 34 15 113
21 176 7 63 16 142 20 175 5 33 12 98 16 145 6 76 5 83 -9 70 -10 -10 -19 -52
-26 -125 -6 -60 -22 -211 -36 -335 -14 -123 -25 -226 -25 -227 0 -8 -69 -1
-100 10 -26 9 -34 17 -33 32 2 11 23 243 48 515 25 272 48 523 51 558 5 41 3
62 -4 62 -16 0 -20 -22 -32 -155 -41 -474 -90 -986 -95 -995 -3 -5 -46 -6 -96
-3 l-91 6 -68 -71 c-239 -248 -565 -695 -795 -1087 -175 -300 -307 -569 -441
-900 -39 -98 -76 -181 -80 -182 -5 -1 -47 93 -94 209 -270 677 -707 1387
-1157 1881 -110 120 -118 127 -154 127 -51 0 -58 -16 -14 -29 40 -11 61 -32
219 -225 464 -564 876 -1274 1112 -1916 19 -52 40 -108 46 -125 24 -64 51 -73
72 -22 8 17 45 111 82 207 37 96 84 213 105 258 22 46 39 86 39 88 0 14 163
335 238 470 246 442 567 894 845 1191 l62 66 110 -6 c67 -3 139 -14 185 -27
156 -45 340 -196 413 -340 20 -41 37 -78 37 -83 0 -4 9 -26 19 -50 11 -23 29
-76 42 -117 12 -41 24 -82 27 -90 3 -8 6 -22 8 -30 1 -8 12 -49 24 -90 23 -77
33 -121 49 -200 5 -25 16 -72 24 -105 18 -70 69 -344 92 -495 8 -58 20 -133
25 -166 15 -96 12 -150 -12 -202 -12 -26 -25 -49 -29 -52 -3 -3 -9 -15 -13
-27 -4 -13 -12 -23 -17 -23 -5 0 -9 -5 -9 -11 0 -24 -42 -70 -59 -64 -32 13
-111 24 -126 19 -23 -9 -18 -27 26 -98 50 -80 145 -298 165 -380 8 -33 20 -73
26 -89 7 -18 7 -31 0 -40 -5 -6 -13 -23 -17 -37 -4 -14 -14 -41 -22 -60 -8
-19 -19 -44 -23 -55 -4 -11 -15 -36 -24 -57 -9 -20 -16 -39 -16 -43 0 -3 -11
-31 -25 -61 -14 -30 -25 -58 -25 -63 0 -4 -15 -43 -33 -87 -19 -43 -56 -135
-82 -204 -53 -136 -198 -497 -219 -545 -8 -16 -35 -84 -61 -150 -26 -66 -56
-140 -67 -165 -11 -25 -27 -61 -35 -80 -8 -19 -22 -51 -31 -70 -8 -19 -16 -40
-18 -46 -2 -13 -46 -110 -85 -188 -16 -32 -29 -63 -29 -68 0 -24 -84 -126
-180 -220 -148 -145 -234 -220 -580 -509 -336 -280 -579 -466 -637 -488 -54
-19 -261 -26 -345 -11 -76 13 -89 21 -307 184 -415 308 -912 731 -1061 901
-74 85 -109 149 -225 421 -158 368 -687 1692 -687 1719 0 52 137 380 207 495
38 62 44 90 20 90 -8 0 -43 -8 -77 -17 l-61 -17 -33 37 c-17 21 -51 76 -75
122 l-42 84 7 87 c12 163 93 621 171 967 50 218 51 229 31 221 -12 -5 -56
-150 -102 -336 -9 -38 -20 -68 -24 -68 -4 0 -18 26 -30 58 -21 51 -52 102 -38
62 3 -8 18 -54 33 -102 l28 -87 -17 -83 c-37 -182 -106 -586 -106 -622 0 -17
-43 2 -162 73 -208 122 -377 225 -575 347 -159 98 -211 121 -188 85 16 -26
461 -316 700 -456 223 -130 218 -126 233 -176 15 -49 79 -163 124 -221 26 -34
35 -38 74 -38 24 0 44 -3 44 -8 0 -4 -20 -48 -44 -97 -23 -50 -63 -141 -87
-202 -23 -62 -46 -113 -50 -113 -5 0 -21 19 -37 43 -85 122 -257 288 -390 378
-162 108 -219 87 -273 -101 -28 -97 -40 -180 -48 -325 -3 -74 -10 -130 -16
-130 -12 0 -297 320 -486 546 -238 285 -412 520 -648 878 l-121 184 0 -330 0
-329 253 -129 c435 -222 397 -198 483 -305 117 -146 266 -320 404 -470 l125
-137 13 -104 c12 -103 35 -230 49 -265 6 -15 2 -16 -31 -11 -28 4 -65 30 -149
100 -379 320 -778 703 -1090 1044 l-57 63 0 -689 c0 -451 3 -692 10 -696 6 -3
8 -20 5 -37 -8 -41 -8 -40 -6 -67 1 -14 6 -21 14 -18 19 7 50 -20 44 -38 -5
-10 0 -15 13 -15 10 0 21 -9 25 -20 3 -11 21 -30 38 -42 18 -12 34 -25 37 -28
3 -3 86 -62 185 -130 198 -136 516 -365 583 -418 131 -106 -34 -31 -468 211
-118 66 -255 141 -305 166 -50 25 -93 50 -97 56 -4 5 -10 6 -14 3 -3 -4 1 -15
10 -24 10 -9 15 -23 12 -31 -3 -8 -6 -19 -6 -23 0 -5 -18 -15 -40 -21 l-40
-12 0 -1394 0 -1393 425 0 425 0 -6 28 c-3 15 -10 43 -15 62 -5 19 -9 38 -9
43 0 14 149 7 262 -13 124 -21 206 -44 313 -85 71 -28 138 -41 171 -32 25 5
-125 78 -244 116 -118 39 -221 60 -356 72 -171 16 -153 2 -161 126 l-8 107 44
39 c136 119 770 597 793 597 7 0 27 13 46 30 19 16 40 29 45 30 6 0 33 20 60
44 87 75 477 316 513 316 17 0 16 -12 -26 -260 l-28 -164 -107 -67 c-210 -132
-453 -336 -446 -374 7 -36 29 -25 119 59 135 125 420 323 443 309 5 -3 25 -40
45 -82 19 -42 52 -114 73 -159 22 -46 39 -87 39 -91 0 -5 9 -16 19 -25 21 -19
41 -14 41 8 0 16 -55 141 -148 336 -11 23 -16 56 -15 95 1 55 40 304 63 415 6
25 14 68 19 95 18 98 122 566 146 655 20 77 39 130 46 130 3 0 18 -28 34 -62
48 -105 84 -180 93 -192 5 -6 33 -56 62 -111 29 -55 63 -114 76 -132 48 -63
460 -426 779 -685 99 -81 239 -194 310 -252 72 -58 140 -115 152 -126 12 -11
34 -25 48 -32 14 -6 25 -14 25 -18 0 -15 103 -62 157 -72 137 -25 333 -13 413
26 51 24 177 111 200 137 3 3 32 25 65 50 33 24 65 49 71 54 11 11 40 34 154
122 90 69 82 63 200 159 52 43 97 80 100 84 3 3 25 21 50 40 24 19 52 42 61
50 8 8 42 38 74 65 32 28 63 55 69 60 12 11 174 155 192 170 7 6 44 42 84 80
102 98 127 140 266 450 32 72 59 132 61 134 8 11 17 -15 33 -91 17 -79 41
-183 60 -258 5 -19 14 -57 20 -85 6 -27 16 -66 21 -85 5 -19 29 -120 54 -225
57 -243 64 -265 76 -265 16 0 20 23 11 72 -13 68 -4 76 58 50 l52 -22 46 45
c25 25 76 66 113 92 58 39 71 44 84 33 14 -12 14 -15 -2 -32 -9 -10 -18 -27
-19 -36 -2 -12 2 -10 15 7 14 18 24 22 42 18 12 -3 28 -2 33 2 6 5 28 14 48
20 20 7 42 19 48 27 9 10 33 14 80 14 45 0 70 4 72 12 3 7 18 13 34 14 21 1
28 6 26 18 -2 9 3 15 10 14 7 -2 13 6 13 17 0 11 8 21 18 23 21 4 22 16 2 32
-18 15 -55 4 -55 -18 0 -13 -2 -14 -8 -4 -7 9 -13 8 -27 -8 -23 -25 -55 -26
-55 -2 0 24 110 136 220 224 25 20 61 51 80 68 83 73 239 190 254 190 11 0 16
-9 16 -29 0 -37 10 -62 21 -55 5 3 9 -7 9 -22 0 -26 1 -26 13 -10 12 16 17 17
36 6 15 -8 21 -8 17 -1 -4 7 1 11 13 11 10 0 22 -6 24 -12 4 -9 8 -10 14 -2 9
12 103 26 103 15 0 -10 61 -34 90 -36 14 -1 61 4 105 12 44 8 88 15 97 16 9 1
15 4 13 8 -3 3 20 18 49 33 30 15 64 38 76 51 13 14 27 22 31 19 5 -3 9 4 9
15 0 12 6 21 13 21 7 0 18 9 25 20 7 11 19 20 28 20 8 0 13 4 10 8 -6 11 40
53 48 45 3 -4 6 -1 6 6 0 6 12 24 28 40 15 15 35 38 45 50 10 12 23 19 29 15
7 -5 8 -3 3 5 -4 8 1 20 14 32 20 19 19 50 -2 46 -6 -1 -13 6 -15 17 -2 11 0
16 7 12 6 -4 11 -3 11 3 0 5 9 13 20 16 11 4 19 9 17 13 -3 4 15 23 39 42 24
19 49 47 56 62 7 15 20 27 28 25 13 -2 15 166 16 1498 1 825 0 1491 -3 1480
-3 -11 -52 -162 -109 -335 -68 -206 -124 -353 -159 -425 -83 -166 -273 -421
-560 -749 -71 -81 -145 -166 -163 -187 -34 -40 -37 -69 -6 -69 9 0 215 80 458
179 488 197 492 198 482 182 -7 -10 -73 -55 -321 -216 -328 -214 -405 -265
-405 -275 0 -5 4 -10 10 -10 5 0 153 94 328 209 346 226 362 236 362 222 0 -5
-137 -143 -304 -307 l-304 -299 -173 -104 c-96 -57 -270 -164 -387 -238 -117
-74 -215 -133 -218 -131 -2 3 13 41 34 84 67 135 101 253 127 439 29 200 14
518 -32 690 l-16 61 68 100 c38 54 136 198 219 319 83 121 187 273 231 337
121 177 136 203 194 348 30 74 61 142 71 150 9 8 143 85 298 170 l282 155 0
754 c0 415 -2 752 -3 750 -2 -2 -22 -58 -45 -124 -138 -405 -310 -902 -382
-1105 -29 -80 -56 -156 -60 -170 -4 -14 -24 -68 -43 -120 -203 -551 -210 -568
-337 -750 -59 -85 -196 -285 -305 -445 -108 -159 -200 -293 -204 -298 -4 -4
-23 5 -42 19 -45 34 -89 28 -177 -24 -121 -72 -340 -281 -414 -394 -17 -27
-34 -48 -38 -48 -4 0 -28 55 -55 122 -26 68 -65 158 -87 200 -21 43 -38 82
-38 88 0 5 20 10 45 10 42 0 47 3 80 48 20 26 56 89 81 140 46 93 46 93 41
175 -10 158 -104 684 -170 959 -8 31 -11 61 -8 66 3 5 175 106 381 224 395
227 600 345 713 410 44 25 65 44 59 50 -6 6 -66 -24 -163 -80 -85 -49 -291
-168 -459 -264 -168 -97 -353 -203 -411 -236 -146 -84 -134 -83 -154 -15 -9
32 -31 108 -50 170 l-35 111 29 174 c16 95 32 202 36 238 4 36 10 71 14 78 4
7 95 48 202 91 244 98 358 147 482 205 55 25 100 46 102 46 8 0 366 177 505
251 285 150 625 355 830 502 l75 53 3 562 2 562 -285 0 c-220 0 -286 -3 -289
-12 -2 -7 -9 -85 -16 -173 -19 -266 -30 -341 -81 -570 -52 -228 -169 -712
-194 -801 l-15 -50 -149 -77 c-82 -43 -152 -74 -155 -69 -2 4 11 113 30 242
18 129 38 269 44 310 5 41 14 107 20 145 65 471 110 881 110 997 0 54 -2 58
-23 58 -23 0 -24 -3 -36 -157 -15 -188 -53 -524 -96 -833 -67 -485 -112 -788
-120 -800 -4 -6 -34 -23 -68 -39 -34 -16 -100 -47 -147 -69 -122 -58 -296
-133 -518 -223 -154 -62 -194 -75 -199 -63 -3 8 1 76 8 152 9 91 14 278 13
557 0 450 -7 554 -60 870 -32 194 -45 247 -106 443 -51 161 -52 162 -81 162
-24 0 -28 -3 -22 -17z m-5071 -4514 c11 -11 35 -23 54 -28 42 -12 143 -95 253
-208 155 -159 150 -151 374 -710 111 -279 200 -512 197 -517 -10 -17 -50 42
-57 84 -6 35 -15 47 -62 81 -46 34 -59 40 -77 31 -37 -17 -126 -93 -126 -108
0 -21 7 -18 69 31 31 25 63 45 69 45 7 0 28 -10 47 -22 27 -18 39 -35 50 -74
17 -55 40 -86 84 -108 18 -10 36 -33 50 -66 12 -29 20 -54 18 -57 -3 -2 -29 0
-59 5 -29 6 -67 8 -84 5 -26 -4 -34 1 -57 30 -33 43 -82 67 -139 67 -65 0 -93
23 -177 145 -65 96 -111 179 -111 201 0 11 40 59 90 109 86 86 90 88 90 60 0
-17 -7 -55 -15 -85 -18 -67 -19 -93 -3 -88 17 6 48 129 55 219 5 70 3 80 -25
141 -67 139 -279 475 -341 541 -32 34 -197 147 -215 147 -12 0 -6 -28 8 -33
12 -5 8 -20 -20 -74 -47 -93 -61 -193 -45 -322 11 -91 22 -123 38 -108 3 4 1
42 -5 85 -15 97 -15 151 2 227 14 68 50 143 71 151 20 8 127 -68 168 -118 20
-24 61 -83 92 -133 l56 -90 -6 -70 c-6 -59 -26 -129 -60 -207 -5 -13 -3 -18 7
-18 18 0 63 102 79 179 9 44 13 51 24 40 29 -31 137 -240 138 -268 2 -24 -13
-44 -84 -118 -152 -157 -152 -159 -81 -281 110 -191 181 -262 261 -262 56 0
97 -20 134 -66 26 -31 33 -34 85 -34 69 -1 130 -14 148 -32 19 -19 133 -301
126 -312 -7 -13 -148 1 -227 24 -96 27 -291 127 -405 208 -116 82 -297 259
-377 368 -113 154 -191 340 -227 539 -46 250 -32 592 30 778 36 108 64 126
118 76z m6046 21 c26 -14 56 -102 82 -238 17 -92 21 -156 21 -302 1 -324 -42
-497 -181 -740 -112 -194 -294 -384 -507 -528 -72 -48 -239 -133 -310 -157
-62 -22 -179 -45 -223 -45 -30 0 -32 2 -26 28 10 45 97 266 112 284 15 18 96
33 158 29 38 -2 46 2 86 43 46 46 59 52 141 59 40 4 56 12 89 43 45 44 179
240 203 298 16 38 16 39 -12 76 -58 78 -129 157 -160 181 -52 39 -51 42 81
283 l21 38 7 -38 c11 -65 48 -153 71 -169 28 -20 41 -19 34 3 -32 103 -47 169
-53 223 -6 65 -6 65 39 135 109 166 130 189 204 233 l53 30 24 -42 c28 -49 34
-75 48 -212 7 -71 7 -114 -1 -149 -12 -51 -3 -78 17 -54 15 18 32 128 32 203
0 78 -24 176 -57 237 -20 37 -24 51 -15 60 15 15 15 38 1 38 -20 0 -183 -107
-215 -142 -58 -61 -213 -305 -323 -508 -44 -81 -46 -88 -44 -160 0 -41 11
-110 22 -152 12 -43 21 -80 21 -83 0 -3 7 -5 16 -5 13 0 15 7 10 33 -4 17 -9
57 -13 87 l-6 55 81 -79 c88 -86 86 -80 46 -159 -32 -62 -123 -194 -159 -230
-33 -33 -43 -37 -86 -37 -59 0 -117 -27 -151 -69 -21 -27 -29 -29 -100 -33
-43 -2 -78 -2 -78 -1 0 19 46 93 57 93 27 0 83 69 89 110 5 29 16 46 45 69 21
17 41 31 46 31 4 0 35 -23 68 -50 33 -28 63 -50 66 -50 4 0 12 7 19 15 9 11 7
18 -12 35 -59 55 -124 100 -143 100 -11 0 -42 -19 -68 -42 -35 -32 -51 -57
-64 -98 -12 -37 -24 -56 -37 -58 -10 -2 -16 0 -13 5 7 11 178 442 286 721 125
321 145 355 310 521 100 100 187 170 267 211 64 34 59 33 84 20z m-6903 -870
c98 -39 284 -104 413 -146 129 -42 250 -81 269 -87 29 -11 38 -23 70 -97 68
-157 173 -302 331 -458 123 -121 143 -117 -178 -39 -117 29 -213 57 -213 62 1
6 47 18 104 28 100 18 136 34 123 56 -4 6 -102 68 -219 138 -407 244 -938 613
-882 613 2 0 84 -32 182 -70z m6644 -920 c79 -17 189 -40 244 -51 159 -32 152
-29 134 -40 -9 -4 -131 -38 -270 -73 -140 -36 -397 -101 -571 -145 -175 -45
-324 -81 -331 -81 -15 0 -42 84 -32 99 2 5 28 11 57 15 137 18 356 117 525
237 54 38 99 69 99 69 1 0 66 -14 145 -30z m-5133 -173 c86 -45 228 -94 303
-105 l54 -8 -2 -43 c-1 -24 -6 -48 -11 -53 -6 -6 -54 -1 -123 12 -107 20 -161
30 -269 49 -247 44 -508 93 -520 98 -22 8 12 19 116 37 49 9 148 27 219 39 72
13 137 21 145 18 8 -4 48 -23 88 -44z"/>
<path d="M8320 8988 c0 -7 -32 -144 -72 -305 -63 -257 -77 -340 -49 -294 9 13
151 581 151 601 0 5 -7 10 -15 10 -8 0 -15 -6 -15 -12z"/>
<path d="M0 8135 c0 -8 30 -58 67 -112 105 -154 175 -256 193 -280 15 -19 41
-74 141 -298 10 -22 103 -231 208 -465 104 -235 200 -451 214 -480 13 -30 62
-138 107 -240 76 -170 110 -232 110 -203 0 10 -360 827 -520 1178 -14 33 -69
155 -120 270 -87 194 -106 227 -243 428 -82 119 -150 217 -153 217 -2 0 -4 -7
-4 -15z"/>
<path d="M8765 7517 l-230 -269 -365 -217 c-201 -120 -380 -226 -397 -237 -33
-18 -43 -34 -22 -34 6 0 133 73 282 162 150 89 326 193 392 233 l120 71 163
190 c257 297 294 343 290 357 -2 8 -106 -108 -233 -256z"/>
<path d="M3 6846 l2 -760 90 -70 c306 -239 829 -596 846 -579 8 8 -10 27 -61
65 -66 49 -76 61 -121 151 -107 211 -306 685 -439 1042 -28 77 -58 158 -67
180 -26 69 -143 403 -199 570 l-54 160 3 -759z"/>
<path d="M1808 7494 c-7 -6 14 -67 121 -354 97 -259 236 -622 268 -699 8 -18
16 -31 19 -28 3 2 0 15 -5 28 -5 13 -23 62 -40 109 -84 241 -326 892 -345 927
-6 13 -15 21 -18 17z"/>
<path d="M2961 7434 c0 -11 3 -14 6 -6 3 7 2 16 -1 19 -3 4 -6 -2 -5 -13z"/>
<path d="M0 5916 c0 -9 26 -45 58 -79 172 -185 238 -254 356 -370 242 -238
253 -234 21 8 -197 205 -373 390 -422 445 -11 12 -13 12 -13 -4z"/>
<path d="M8834 5683 l-159 -238 -190 -112 c-171 -100 -217 -133 -186 -133 6 0
97 51 203 114 l193 114 152 227 c128 190 170 265 150 265 -2 0 -75 -107 -163
-237z"/>
<path d="M2001 5794 c0 -11 3 -14 6 -6 3 7 2 16 -1 19 -3 4 -6 -2 -5 -13z"/>
<path d="M6242 5747 c-15 -18 -41 -214 -51 -391 -9 -147 0 -389 17 -466 8 -37
39 -50 35 -15 -18 158 -24 284 -18 410 6 146 27 368 41 431 7 34 -7 52 -24 31z"/>
<path d="M6107 5663 c-3 -5 -8 -62 -11 -128 -19 -353 -16 -341 -150 -569 -69
-118 -80 -146 -56 -146 8 0 140 219 183 305 13 28 27 75 31 105 13 110 35 424
30 432 -6 10 -21 10 -27 1z"/>
<path d="M6374 5304 c-9 -37 4 -305 21 -434 16 -124 49 -263 77 -328 25 -59
65 -112 82 -112 10 0 2 27 -24 88 -42 98 -73 214 -89 337 -17 132 -39 385 -41
453 0 30 -18 28 -26 -4z"/>
<path d="M2570 5293 c0 -16 -5 -102 -10 -193 -18 -285 -60 -489 -127 -613 -27
-48 -24 -79 4 -42 88 118 140 351 150 678 4 146 3 197 -5 197 -7 0 -12 -12
-12 -27z"/>
<path d="M6072 4963 c-29 -41 -132 -250 -132 -268 0 -8 4 -15 9 -15 10 0 105
154 121 195 15 39 30 30 30 -17 0 -63 30 -178 46 -178 18 0 17 34 0 166 -13
99 -28 144 -46 144 -5 0 -17 -12 -28 -27z"/>
<path d="M2 4798 c4 -13 93 -83 374 -298 153 -118 164 -125 164 -112 0 9 -524
422 -536 422 -3 0 -4 -6 -2 -12z"/>
<path d="M4958 4703 c-165 -156 -300 -338 -406 -547 l-47 -91 -3 80 c-2 94 -9
128 -22 120 -6 -3 -10 -43 -10 -89 0 -45 -3 -86 -7 -89 -3 -4 -29 35 -56 86
-75 140 -150 251 -253 373 -82 97 -191 204 -208 204 -12 0 -5 -32 29 -148 61
-209 91 -361 80 -411 -7 -35 -45 -56 -97 -55 -74 2 -132 73 -147 181 l-8 58
-17 -40 c-23 -51 -41 -145 -33 -177 11 -43 46 -76 113 -108 82 -40 188 -46
232 -13 40 30 54 96 48 223 l-6 105 32 -36 c60 -65 236 -317 277 -394 19 -36
21 -56 21 -218 0 -139 3 -178 13 -175 9 4 13 54 17 189 l5 185 42 70 c43 72
245 348 263 359 7 4 10 -35 10 -115 0 -132 14 -185 54 -200 90 -34 98 -34 190
5 133 58 152 82 146 195 -2 44 -40 170 -51 170 -5 0 -9 -25 -9 -56 0 -77 -18
-131 -56 -169 -55 -55 -134 -55 -170 0 -14 22 -15 35 -5 103 15 98 59 276 101
405 11 33 20 64 20 69 0 19 -25 4 -82 -49z"/>
<path d="M6600 4498 c0 -8 31 -77 69 -154 38 -78 79 -163 91 -190 12 -27 33
-73 46 -102 13 -29 24 -61 24 -71 0 -10 7 -24 16 -31 12 -11 18 -11 30 2 13
13 13 19 -2 56 -9 23 -19 42 -23 42 -4 0 -29 48 -56 108 -125 271 -195 393
-195 340z"/>
<path d="M2275 4363 c-93 -192 -175 -370 -175 -383 0 -23 22 -8 36 25 8 19 63
139 123 265 67 142 104 230 96 230 -7 0 -43 -62 -80 -137z"/>
<path d="M3504 4269 c-4 -8 6 -24 27 -43 301 -268 436 -393 546 -504 76 -77
134 -129 138 -122 3 6 -8 29 -26 51 -47 60 -377 367 -655 612 -17 14 -24 15
-30 6z"/>
<path d="M5264 4113 c-231 -206 -514 -481 -514 -499 0 -8 3 -14 8 -14 4 0 77
69 162 153 127 124 322 302 524 479 23 20 28 30 20 38 -8 8 -61 -33 -200 -157z"/>
<path d="M2284 4259 c-19 -22 -138 -349 -130 -356 12 -12 23 11 85 176 58 154
73 215 45 180z"/>
<path d="M6660 4260 c0 -6 29 -89 65 -183 36 -95 68 -178 70 -184 2 -7 11 -13
20 -13 20 0 19 37 -1 75 -9 17 -40 93 -69 170 -35 92 -58 141 -69 143 -9 2
-16 -2 -16 -8z"/>
<path d="M6419 4248 c-63 -8 -154 -40 -248 -88 -166 -83 -290 -172 -933 -671
-444 -345 -549 -420 -578 -417 -18 2 -25 -3 -30 -22 -13 -45 -28 20 -40 173
-9 113 -13 128 -30 111 -17 -17 3 -342 24 -381 l17 -33 -34 0 c-34 0 -34 1
-36 43 0 23 -5 58 -11 77 -5 19 -10 57 -10 83 0 47 -1 48 -27 45 -27 -3 -28
-6 -35 -78 -5 -41 -8 -96 -8 -122 l1 -48 -40 0 -40 0 19 33 c12 20 19 52 19
87 0 30 5 96 11 145 14 123 13 155 -4 155 -16 0 -26 -30 -26 -83 0 -21 -5 -66
-12 -102 -12 -63 -13 -64 -48 -67 -63 -5 -98 18 -560 376 -374 290 -680 520
-772 580 -197 128 -384 206 -493 206 -53 0 -56 -2 -84 -41 -42 -58 -172 -322
-174 -355 l-2 -27 117 2 116 2 38 -68 c114 -205 243 -427 285 -489 37 -55 57
-75 88 -88 56 -22 403 -108 586 -145 83 -17 179 -37 215 -45 36 -7 120 -23
187 -36 l122 -22 53 30 54 31 51 -28 c28 -15 64 -37 79 -48 16 -11 37 -23 47
-26 11 -4 21 -16 24 -27 10 -37 80 -60 187 -60 104 0 164 19 186 59 9 18 64
55 156 107 l42 23 57 -31 58 -31 266 53 c430 85 661 137 805 182 78 25 91 38
194 213 33 55 88 147 122 205 34 58 79 133 98 168 l36 62 116 0 c77 0 120 4
128 12 9 9 12 9 12 0 0 -15 26 -16 35 -2 4 6 -5 33 -19 61 -15 27 -52 111 -82
187 -68 165 -72 174 -85 166 -15 -9 -8 -32 44 -158 48 -113 48 -125 2 -41
-120 220 -118 219 -236 203z m-3846 -34 c130 -29 354 -149 544 -290 43 -32
239 -184 436 -336 415 -322 609 -469 690 -523 60 -40 67 -56 41 -93 l-16 -23
-44 26 c-183 107 -1138 637 -1299 721 -237 123 -378 164 -561 164 -76 0 -94 3
-94 15 0 28 152 315 177 335 31 24 35 24 126 4z m3965 -22 c25 -31 162 -300
162 -319 0 -10 -27 -13 -102 -13 -215 -1 -378 -58 -748 -265 -52 -29 -273
-152 -490 -273 -217 -121 -456 -254 -530 -296 -74 -42 -138 -72 -142 -68 -4 4
-10 22 -14 39 -6 29 -2 33 57 74 79 53 248 180 484 363 741 576 863 661 1055
741 80 34 176 56 215 50 17 -3 40 -17 53 -33z m-3698 -482 c52 -26 181 -95
285 -152 l190 -104 11 -45 c25 -99 79 -158 169 -184 48 -14 61 -15 107 -2 29
8 60 17 68 21 17 7 311 -152 318 -172 8 -26 -45 -36 -116 -22 -81 15 -727 176
-762 189 -14 5 -58 20 -98 32 -49 15 -80 31 -93 48 -28 35 -219 416 -219 436
0 22 20 15 140 -45z m3430 50 c0 -23 -197 -405 -225 -436 -38 -42 -116 -67
-515 -168 -435 -110 -495 -122 -526 -107 -14 6 -24 17 -22 24 3 6 70 49 151
95 l146 83 62 -21 c53 -18 68 -20 115 -10 32 7 71 24 96 43 43 33 87 106 88
143 0 12 8 31 18 42 28 34 567 320 605 322 4 0 7 -5 7 -10z m-2836 -384 c8
-14 26 -28 38 -32 12 -3 51 -23 87 -42 65 -36 65 -36 35 -44 -85 -24 -200 36
-220 116 -5 23 -3 26 19 26 15 0 31 -9 41 -24z m2156 1 c0 -21 -47 -79 -82
-101 -32 -21 -138 -30 -154 -13 -11 11 27 47 50 47 12 1 55 19 96 40 84 44 90
45 90 27z"/>
<path d="M2343 4228 c-5 -7 -24 -49 -42 -93 -118 -289 -120 -295 -101 -295 8
0 23 28 50 95 10 23 110 274 117 293 3 6 1 12 -5 12 -5 0 -14 -6 -19 -12z"/>
<path d="M4899 3917 c-134 -134 -199 -217 -249 -318 -36 -70 -40 -89 -19 -89
4 0 24 27 45 61 47 77 138 193 227 287 64 68 76 91 50 99 -5 2 -30 -16 -54
-40z"/>
<path d="M4005 3940 c-3 -5 40 -60 95 -122 56 -62 131 -157 167 -210 62 -93
83 -115 83 -85 0 21 -39 96 -82 160 -37 54 -237 267 -251 267 -3 0 -9 -4 -12
-10z"/>
<path d="M5560 2913 c-150 -42 -283 -84 -342 -109 -32 -13 -71 -24 -87 -24
-34 0 -49 -15 -25 -24 34 -13 84 -5 147 24 63 29 277 94 284 87 2 -2 -15 -12
-36 -22 -72 -32 -58 -61 14 -31 66 28 221 55 410 72 105 9 192 18 194 20 3 3
-1 10 -7 16 -9 9 -59 7 -204 -6 -106 -9 -208 -19 -227 -23 -30 -5 -33 -4 -27
15 4 11 3 22 -1 24 -4 2 -46 -6 -93 -19z"/>
<path d="M2857 2924 c-17 -17 -4 -24 43 -24 141 0 445 -43 533 -76 66 -25 91
-29 82 -14 -25 40 -247 91 -465 105 -47 3 -108 8 -135 11 -28 3 -54 2 -58 -2z"/>
<path d="M3320 2910 c0 -12 -3 -11 100 -35 78 -19 233 -72 308 -106 30 -14 60
-19 95 -17 62 4 69 21 12 29 -22 3 -83 22 -135 41 -81 31 -334 98 -369 98 -6
0 -11 -5 -11 -10z"/>
<path d="M3632 2888 c2 -6 50 -26 106 -44 108 -35 195 -81 276 -145 27 -22 57
-39 68 -39 22 0 108 83 108 105 0 18 -69 85 -87 85 -20 0 -15 -26 11 -57 l24
-27 -21 -28 c-26 -35 -41 -35 -80 -2 -90 76 -421 200 -405 152z"/>
<path d="M5215 2876 c-79 -25 -242 -105 -290 -142 -39 -30 -46 -30 -73 -1 -22
23 -29 47 -14 47 8 0 42 52 42 64 0 3 -7 6 -15 6 -23 0 -85 -60 -85 -83 0 -22
82 -107 104 -107 8 0 36 18 62 40 67 55 165 104 286 144 102 34 136 56 81 56
-15 -1 -59 -11 -98 -24z"/>
<path d="M5965 2869 c-112 -11 -187 -30 -193 -48 -5 -15 9 -14 163 9 39 6 129
10 200 8 108 -2 130 0 130 12 0 28 -122 36 -300 19z"/>
<path d="M2722 2858 c3 -9 25 -12 74 -10 78 4 264 -13 337 -29 48 -11 69 -7
51 11 -30 30 -471 57 -462 28z"/>
<path d="M4277 2794 c-13 -13 5 -24 37 -24 42 0 80 -34 107 -95 23 -53 44 -61
34 -12 -18 80 -73 137 -134 137 -21 0 -41 -3 -44 -6z"/>
<path d="M4568 2767 c-20 -20 -40 -53 -47 -80 -21 -74 -7 -77 27 -6 33 69 55
87 112 91 51 4 43 22 -12 26 -41 3 -50 -1 -80 -31z"/>
<path d="M4290 2710 c0 -5 13 -16 28 -24 18 -9 37 -34 52 -68 29 -64 40 -79
50 -73 12 7 -37 125 -63 153 -20 22 -67 31 -67 12z"/>
<path d="M4607 2690 c-14 -16 -35 -55 -46 -85 -24 -65 -24 -65 -10 -65 5 0 21
26 35 58 14 32 41 71 62 89 l37 33 -27 0 c-17 0 -35 -10 -51 -30z"/>
<path d="M5978 2653 c7 -3 16 -2 19 1 4 3 -2 6 -13 5 -11 0 -14 -3 -6 -6z"/>
<path d="M5786 2599 c5 -9 42 -51 82 -94 39 -43 72 -82 72 -87 0 -4 5 -8 11
-8 6 0 -7 21 -30 48 -62 72 -145 159 -135 141z"/>
<path d="M5941 2597 c2 -1 13 -9 24 -17 19 -14 19 -14 6 3 -7 9 -18 17 -24 17
-6 0 -8 -1 -6 -3z"/>
<path d="M5679 2537 c14 -18 51 -42 51 -33 0 3 -15 15 -32 27 -24 17 -29 18
-19 6z"/>
<path d="M6044 2516 c31 -46 81 -96 96 -96 6 0 13 7 17 16 7 20 -52 83 -87 91
-14 3 -31 11 -39 17 -7 6 -2 -7 13 -28z"/>
<path d="M5988 2482 c18 -15 32 -31 33 -37 0 -5 19 -32 43 -58 37 -42 44 -46
56 -32 10 12 10 19 -3 37 -22 35 -68 78 -82 78 -7 0 -24 9 -38 20 -38 30 -47
23 -9 -8z"/>
<path d="M5760 2465 c13 -14 26 -25 28 -25 3 0 -5 11 -18 25 -13 14 -26 25
-28 25 -3 0 5 -11 18 -25z"/>
<path d="M4629 2458 c-1 -7 0 -61 1 -119 1 -64 -3 -115 -9 -128 -17 -31 -64
-51 -121 -51 -38 0 -50 -4 -50 -15 0 -12 13 -15 61 -15 56 0 66 3 105 35 l43
36 3 91 3 92 50 -84 c28 -47 51 -90 53 -96 7 -25 -227 -144 -282 -144 -23 1
-157 79 -163 96 -2 6 8 16 22 22 26 12 34 32 13 32 -22 0 -78 -39 -78 -53 0
-13 128 -105 189 -137 32 -17 78 -3 204 63 100 51 147 88 147 114 0 19 -169
273 -181 273 -5 0 -10 -6 -10 -12z"/>
<path d="M5815 2410 c11 -14 37 -44 57 -67 22 -25 38 -53 38 -67 0 -13 4 -26
8 -28 10 -4 61 -81 87 -132 22 -42 41 -54 57 -38 9 9 8 19 -2 39 -36 70 -101
155 -180 233 -47 47 -76 74 -65 60z"/>
<path d="M5685 2390 c10 -11 20 -20 23 -20 3 0 -3 9 -13 20 -10 11 -20 20 -23
20 -3 0 3 -9 13 -20z"/>
<path d="M5968 2378 c5 -23 56 -97 88 -130 21 -22 33 -23 40 -3 7 16 -23 63
-75 118 -40 42 -62 48 -53 15z"/>
<path d="M8960 2375 c0 -8 -5 -15 -10 -15 -6 0 -22 -11 -36 -25 -14 -14 -29
-25 -34 -25 -6 0 -10 -6 -10 -14 0 -7 -12 -21 -26 -31 -19 -12 -23 -19 -14
-25 8 -5 5 -9 -10 -13 -12 -3 -19 -10 -15 -16 3 -7 0 -8 -9 -5 -11 4 -17 -3
-22 -22 -4 -15 -18 -38 -31 -50 -12 -12 -23 -28 -23 -35 0 -11 -2 -11 -10 1
-8 13 -10 13 -10 -2 0 -9 -15 -33 -34 -53 -22 -23 -33 -42 -29 -52 4 -11 3
-14 -6 -9 -7 5 -24 -6 -45 -28 -18 -20 -36 -33 -40 -29 -4 4 -12 0 -17 -10 -6
-9 -19 -17 -30 -17 -13 0 -18 -4 -13 -11 5 -8 -1 -10 -20 -7 -14 3 -26 2 -26
-2 0 -4 -6 -7 -12 -8 -59 -7 -134 -25 -193 -46 -38 -14 -71 -22 -73 -16 -2 6
-10 6 -20 0 -32 -17 -115 -50 -127 -50 -7 0 -24 -9 -38 -20 -22 -18 -26 -18
-38 -4 -12 14 -14 14 -21 -5 -4 -12 -23 -29 -43 -38 -19 -9 -35 -20 -35 -25 0
-4 -9 -8 -20 -8 -12 0 -24 -9 -29 -23 -5 -12 -22 -37 -39 -55 -17 -18 -34 -46
-37 -63 -4 -17 -13 -33 -21 -36 -19 -7 -19 -82 0 -89 8 -3 12 -12 9 -20 -4
-10 4 -14 28 -15 81 -3 74 11 77 -143 2 -121 0 -141 -15 -159 -19 -21 -167
-119 -195 -130 -28 -10 -21 -29 26 -67 46 -37 319 -265 400 -333 27 -23 66
-54 87 -69 42 -30 42 -31 38 -98 -1 -25 -3 -67 -3 -95 l-2 -50 -109 -6 c-171
-10 -368 -55 -504 -115 -112 -50 -171 -80 -171 -86 0 -19 135 -7 201 17 71 25
292 79 364 89 22 2 77 8 123 12 l83 6 -5 -23 c-3 -13 -10 -43 -15 -67 l-9 -42
449 0 449 0 0 1195 c0 1188 0 1195 -20 1195 -11 0 -20 -7 -20 -15z"/>
<path d="M5695 2316 c10 -16 33 -49 51 -73 48 -62 86 -131 82 -144 -4 -11 -21
5 -68 61 -26 30 -16 10 22 -46 15 -23 28 -52 28 -63 0 -19 -3 -20 -22 -10 -13
6 -38 25 -55 42 -18 17 -33 28 -33 24 0 -4 20 -25 45 -48 25 -23 45 -47 45
-53 0 -6 11 -24 25 -39 43 -46 74 -29 39 21 -8 12 -10 22 -5 22 6 0 11 7 11
15 0 8 6 12 14 9 21 -8 28 11 15 40 -9 19 -9 29 0 39 8 11 6 22 -12 47 -29 43
-50 52 -41 16 10 -42 -16 -23 -64 47 -24 34 -55 76 -69 92 l-26 30 18 -29z"/>
<path d="M5660 2283 c0 -6 8 -17 18 -24 16 -13 16 -13 2 6 -8 11 -16 22 -17
24 -2 2 -3 0 -3 -6z"/>
<path d="M5790 2265 c0 -5 9 -21 20 -35 11 -14 20 -20 20 -15 0 6 -9 21 -20
35 -11 14 -20 21 -20 15z"/>
<path d="M5531 2237 c2 -1 15 -11 29 -22 l25 -20 -19 23 c-11 12 -24 22 -29
22 -6 0 -8 -1 -6 -3z"/>
<path d="M5706 2218 c10 -14 21 -24 23 -22 3 3 -6 15 -18 27 l-24 22 19 -27z"/>
<path d="M5599 2187 c16 -20 71 -61 71 -54 0 3 -19 20 -42 38 -24 19 -37 26
-29 16z"/>
<path d="M5621 2073 c1 -5 24 -28 53 -53 l51 -44 -50 52 c-50 53 -56 58 -54
45z"/>
<path d="M5625 1980 c3 -5 8 -10 11 -10 2 0 4 5 4 10 0 6 -5 10 -11 10 -5 0
-7 -4 -4 -10z"/>
<path d="M5744 1941 c9 -16 16 -39 16 -49 0 -25 48 -48 56 -28 7 19 -18 56
-57 85 l-30 23 15 -31z"/>
<path d="M5655 1929 c9 -17 18 -29 21 -27 6 6 -20 58 -29 58 -4 0 0 -14 8 -31z"/>
<path d="M4168 1914 c-27 -8 -48 -19 -48 -24 0 -13 14 -13 62 2 31 9 69 8 192
-7 129 -15 169 -16 243 -7 75 10 150 10 225 -1 26 -3 24 16 -3 30 -30 16 -76
16 -210 2 -101 -11 -149 -9 -379 16 -19 3 -56 -2 -82 -11z"/>
<path d="M5088 1923 c0 -5 -2 -45 -2 -90 -1 -72 1 -83 16 -83 22 0 32 53 23
125 -4 38 -11 55 -21 55 -8 0 -15 -3 -16 -7z"/>
<path d="M3850 1888 c-11 -18 -20 -43 -20 -55 0 -23 30 -83 43 -83 4 0 7 38 7
85 0 47 -2 85 -5 85 -3 0 -14 -15 -25 -32z"/>
<path d="M5680 1880 c0 -5 5 -10 11 -10 5 0 7 5 4 10 -3 6 -8 10 -11 10 -2 0
-4 -4 -4 -10z"/>
<path d="M5600 1861 c0 -5 5 -13 10 -16 6 -3 10 -2 10 4 0 5 -4 13 -10 16 -5
3 -10 2 -10 -4z"/>
<path d="M5705 1845 c4 -11 11 -35 17 -53 5 -18 15 -31 21 -29 23 7 18 35 -14
68 -21 23 -29 28 -24 14z"/>
<path d="M5625 1790 c3 -5 8 -10 11 -10 2 0 4 5 4 10 0 6 -5 10 -11 10 -5 0
-7 -4 -4 -10z"/>
<path d="M2716 1778 c-3 -7 -9 -58 -16 -113 -23 -211 -64 -422 -101 -520 -11
-31 -19 -59 -16 -62 36 -36 109 277 151 649 5 43 -8 77 -18 46z"/>
<path d="M4871 1754 c0 -11 3 -14 6 -6 3 7 2 16 -1 19 -3 4 -6 -2 -5 -13z"/>
<path d="M2832 1648 c-7 -50 -15 -153 -19 -229 -6 -127 -4 -142 17 -201 37
-103 112 -268 121 -268 12 0 12 33 0 46 -5 5 -32 69 -60 142 -48 124 -51 138
-51 220 1 86 11 228 25 330 6 41 5 52 -7 52 -10 0 -17 -25 -26 -92z"/>
<path d="M4830 1720 c0 -5 5 -10 11 -10 5 0 7 5 4 10 -3 6 -8 10 -11 10 -2 0
-4 -4 -4 -10z"/>
<path d="M5000 1690 c0 -5 5 -10 11 -10 5 0 7 5 4 10 -3 6 -8 10 -11 10 -2 0
-4 -4 -4 -10z"/>
<path d="M5202 1678 c-14 -14 -16 -38 -3 -38 8 0 23 41 17 47 -1 1 -8 -3 -14
-9z"/>
<path d="M5040 1672 c0 -4 10 -13 23 -21 22 -14 22 -14 3 8 -20 22 -26 25 -26
13z"/>
<path d="M4375 1659 c-126 -15 -129 -18 -132 -77 -1 -52 13 -77 28 -50 9 17
78 48 154 71 86 25 207 13 291 -30 33 -17 68 -11 62 10 -7 23 -112 65 -191 76
-87 12 -111 12 -212 0z"/>
<path d="M5090 1620 c0 -5 5 -10 11 -10 5 0 7 5 4 10 -3 6 -8 10 -11 10 -2 0
-4 -4 -4 -10z"/>
<path d="M5059 1592 c6 -12 16 -24 22 -28 8 -4 8 -1 0 14 -6 12 -16 24 -22 28
-8 4 -8 1 0 -14z"/>
<path d="M5181 1593 c7 -12 15 -20 18 -17 3 2 -3 12 -13 22 -17 16 -18 16 -5
-5z"/>
<path d="M5005 1562 c22 -21 42 -36 44 -35 7 5 -62 73 -73 73 -6 0 8 -17 29
-38z"/>
<path d="M4956 1557 c3 -10 9 -15 12 -12 3 3 0 11 -7 18 -10 9 -11 8 -5 -6z"/>
<path d="M5090 1540 c0 -5 5 -10 11 -10 5 0 7 5 4 10 -3 6 -8 10 -11 10 -2 0
-4 -4 -4 -10z"/>
<path d="M2500 1530 c0 -5 5 -10 10 -10 6 0 10 5 10 10 0 6 -4 10 -10 10 -5 0
-10 -4 -10 -10z"/>
<path d="M5110 1510 c0 -5 5 -10 11 -10 5 0 7 5 4 10 -3 6 -8 10 -11 10 -2 0
-4 -4 -4 -10z"/>
<path d="M5070 1481 c0 -6 5 -13 10 -16 6 -3 10 1 10 9 0 9 -4 16 -10 16 -5 0
-10 -4 -10 -9z"/>
<path d="M4980 1425 c0 -14 5 -25 10 -25 6 0 10 11 10 25 0 14 -4 25 -10 25
-5 0 -10 -11 -10 -25z"/>
<path d="M6833 1443 c-29 -11 -6 -32 115 -103 120 -71 186 -103 132 -64 -14
10 -32 24 -40 31 -33 26 -190 143 -193 142 -1 0 -8 -3 -14 -6z"/>
<path d="M5041 1384 c0 -11 3 -14 6 -6 3 7 2 16 -1 19 -3 4 -6 -2 -5 -13z"/>
<path d="M6656 1271 c-9 -15 16 -181 27 -181 6 0 8 34 4 87 -6 83 -17 117 -31
94z"/>
<path d="M5569 1113 c-45 -65 -550 -874 -594 -952 -11 -20 -37 -62 -58 -94
-20 -31 -37 -60 -37 -62 0 -3 11 -5 24 -5 24 0 50 38 643 948 107 164 121 204
76 210 -16 2 -29 -9 -54 -45z"/>
<path d="M3314 1136 c-3 -7 21 -53 54 -102 32 -49 124 -192 205 -319 462 -725
452 -710 486 -713 17 -2 31 -1 31 1 0 3 -77 126 -171 274 -95 147 -234 365
-309 483 -248 389 -249 390 -270 390 -12 0 -23 -6 -26 -14z"/>
<path d="M2721 1086 c-17 -24 -31 -48 -31 -53 0 -4 -9 -19 -20 -33 -11 -14
-20 -31 -20 -37 0 -29 23 -9 62 53 l42 67 12 -29 c7 -16 27 -66 44 -112 32
-80 44 -100 53 -85 7 12 -87 266 -100 270 -6 2 -25 -16 -42 -41z"/>
<path d="M7317 1102 c69 -59 106 -83 114 -71 7 12 -17 32 -94 77 -51 30 -59
27 -20 -6z"/>
<path d="M1730 1093 c0 -5 5 -15 10 -23 8 -12 10 -11 10 8 0 12 -4 22 -10 22
-5 0 -10 -3 -10 -7z"/>
<path d="M6587 821 c-68 -140 -89 -201 -69 -201 12 0 51 79 102 205 18 44 37
84 41 90 11 12 12 45 1 45 -5 0 -39 -62 -75 -139z"/>
<path d="M6850 931 c13 -11 28 -17 32 -15 4 3 8 1 8 -4 0 -9 121 -99 146 -109
35 -13 8 16 -48 52 -33 22 -66 45 -72 50 -21 20 -65 45 -78 45 -7 0 -2 -9 12
-19z"/>
<path d="M5638 773 c-26 -29 -198 -503 -198 -545 0 -21 13 -23 28 -6 11 14
102 237 102 251 0 8 61 155 101 244 23 51 23 59 3 67 -21 8 -19 9 -36 -11z"/>
<path d="M3290 756 c0 -13 13 -53 29 -89 26 -57 114 -297 155 -419 25 -76 56
-200 56 -225 0 -19 5 -23 31 -23 l30 0 -7 48 c-15 103 -111 388 -209 622 -36
85 -51 110 -66 110 -13 0 -19 -7 -19 -24z"/>
<path d="M7195 670 c-8 -14 19 -56 44 -69 14 -8 22 -7 31 4 10 12 6 20 -18 45
-32 32 -47 37 -57 20z"/>
<path d="M4259 418 c-9 -21 -9 -43 -1 -95 6 -37 10 -69 8 -70 -2 -2 -26 36
-53 84 -48 83 -83 116 -83 77 0 -27 171 -324 186 -324 17 0 17 9 -1 145 -8 61
-15 124 -15 141 0 16 -6 39 -14 49 -14 19 -15 19 -27 -7z"/>
<path d="M2535 94 c-151 -11 -549 -74 -564 -90 -12 -12 295 5 464 25 205 25
376 23 555 -5 113 -18 395 -30 370 -15 -16 9 -236 51 -375 71 -82 12 -361 21
-450 14z"/>
<path d="M6258 83 c-41 -11 -12 -20 80 -27 53 -3 162 -16 242 -28 150 -22 463
-36 445 -20 -13 11 -220 47 -385 67 -115 14 -342 19 -382 8z"/>
<path d="M5702 25 c-41 -7 -76 -16 -80 -19 -3 -3 38 -6 92 -6 71 0 101 4 112
14 8 8 14 17 14 20 0 9 -59 5 -138 -9z"/>
</g>
</svg>
